HIERARCHY
ROOT joint_Root
{
	OFFSET 0.0 0.0 0.0
	CHANNELS 6 Xposition Yposition Zposition Zrotation Xrotation Yrotation 
	JOINT Hips
	{
		OFFSET 4.5925 91.4895 -427.239
		CHANNELS 6 Xposition Yposition Zposition Zrotation Xrotation Yrotation 
		JOINT Spine
		{
			OFFSET 15.7357 0.0 0.0
			CHANNELS 6 Xposition Yposition Zposition Zrotation Xrotation Yrotation 
			JOINT Chest
			{
				OFFSET 8.98455 -0.406207 0.0
				CHANNELS 6 Xposition Yposition Zposition Zrotation Xrotation Yrotation 
				JOINT Neck
				{
					OFFSET 16.3773 0.0 0.0
					CHANNELS 6 Xposition Yposition Zposition Zrotation Xrotation Yrotation 
					JOINT Head
					{
						OFFSET 6.45672 0.0 0.0
						CHANNELS 6 Xposition Yposition Zposition Zrotation Xrotation Yrotation 
						End Site
						{
							OFFSET 0.0 0.0 0.0
						}
					}
				}
				JOINT Shoulder_L
				{
					OFFSET 12.9942 -0.242716 4.98039
					CHANNELS 6 Xposition Yposition Zposition Zrotation Xrotation Yrotation 
					JOINT UpperArm_L
					{
						OFFSET 5.34809 0.0 0.0
						CHANNELS 6 Xposition Yposition Zposition Zrotation Xrotation Yrotation 
						JOINT LowerArm_L
						{
							OFFSET 24.3286 1.87007e-05 0.0
							CHANNELS 6 Xposition Yposition Zposition Zrotation Xrotation Yrotation 
							JOINT Hand_L
							{
								OFFSET 22.2916 0.0 0.0
								CHANNELS 6 Xposition Yposition Zposition Zrotation Xrotation Yrotation 
								End Site
								{
									OFFSET 0.0 0.0 0.0
								}
							}
						}
					}
				}
				JOINT Shoulder_R
				{
					OFFSET 12.9945 -0.242716 -4.98039
					CHANNELS 6 Xposition Yposition Zposition Zrotation Xrotation Yrotation 
					JOINT UpperArm_R
					{
						OFFSET -5.34813 0.0 0.0
						CHANNELS 6 Xposition Yposition Zposition Zrotation Xrotation Yrotation 
						JOINT LowerArm_R
						{
							OFFSET -24.3289 0.000322201 0.0
							CHANNELS 6 Xposition Yposition Zposition Zrotation Xrotation Yrotation 
							JOINT Hand_R
							{
								OFFSET -22.2915 -0.000108084 0.0
								CHANNELS 6 Xposition Yposition Zposition Zrotation Xrotation Yrotation 
								End Site
								{
									OFFSET 0.0 0.0 0.0
								}
							}
						}
					}
				}
			}
		}
		JOINT UpperLeg_L
		{
			OFFSET -2.19248 -6.46944 0.0
			CHANNELS 6 Xposition Yposition Zposition Zrotation Xrotation Yrotation 
			JOINT LowerLeg_L
			{
				OFFSET 39.0811 0.0 -1.23785e-05
				CHANNELS 6 Xposition Yposition Zposition Zrotation Xrotation Yrotation 
				JOINT Foot_L
				{
					OFFSET 40.9854 0.0 -1.26872e-05
					CHANNELS 6 Xposition Yposition Zposition Zrotation Xrotation Yrotation 
					JOINT Toes_L
					{
						OFFSET 11.7543 0.0 0.0
						CHANNELS 6 Xposition Yposition Zposition Zrotation Xrotation Yrotation 
						End Site
						{
							OFFSET 0.0 0.0 0.0
						}
					}
				}
			}
		}
		JOINT UpperLeg_R
		{
			OFFSET -2.19251 6.46944 0.0
			CHANNELS 6 Xposition Yposition Zposition Zrotation Xrotation Yrotation 
			JOINT LowerLeg_R
			{
				OFFSET -39.0811 -0.00228153 -0.0401928
				CHANNELS 6 Xposition Yposition Zposition Zrotation Xrotation Yrotation 
				JOINT Foot_R
				{
					OFFSET -40.9854 0.0 0.0
					CHANNELS 6 Xposition Yposition Zposition Zrotation Xrotation Yrotation 
					JOINT Toes_R
					{
						OFFSET -11.7543 0.0 0.0
						CHANNELS 6 Xposition Yposition Zposition Zrotation Xrotation Yrotation 
						End Site
						{
							OFFSET 0.0 0.0 0.0
						}
					}
				}
			}
		}
	}
}
MOTION
Frames:	9
Frame Time:	0.0333333
0.000000 0.000000 0.000000 0.000000 0.000000 -0.000000 4.956880 88.485700 -11.535900 88.408900 -0.720013 -4.700130 15.735700 0.000005 -0.000001 108.567000 84.115300 -108.087000 8.984550 -0.406207 -0.000000 3.381490 3.724720 0.847588 16.377300 -0.000001 -0.000001 -6.588810 -1.994690 1.514100 6.456720 -0.000001 -0.000000 -11.626800 -4.513040 6.938880 12.994200 -0.242716 4.980390 -90.199500 0.632294 -72.479400 5.348090 -0.000007 -0.000001 -66.677100 35.849700 5.460220 24.328600 0.000019 0.000005 27.979100 -9.808110 -107.780000 22.291600 -0.000001 0.000005 1.876500 5.523230 -7.496850 12.994500 -0.242716 -4.980390 88.438400 8.085470 -79.033800 -5.348130 -0.000001 -0.000004 -67.020000 30.179300 -6.981580 -24.328900 0.000322 -0.000009 -2.104320 1.091400 -117.404000 -22.291500 -0.000108 -0.000004 16.317400 5.549950 -8.702360 -2.192480 -6.469440 -0.000000 179.267000 -6.729670 -26.768700 39.081100 -0.000007 -0.000012 -0.033716 0.009375 74.472000 40.985400 -0.000006 -0.000013 6.235230 -5.592620 -56.902900 11.754300 -0.000000 0.000003 -0.003758 -0.048906 -18.566000 -2.192510 6.469440 -0.000001 179.170000 13.502800 175.034000 -39.081100 -0.002282 -0.040193 0.044897 -0.049131 40.268500 -40.985400 0.000008 0.000006 11.039200 9.810320 -72.561200 -11.754300 -0.000006 -0.000006 -0.056393 -0.319864 -29.770000
0.000000 0.000000 0.000000 0.000000 0.000000 -0.000000 5.871730 91.332900 -5.894390 89.196000 -2.046150 -6.472270 15.735700 0.000005 -0.000001 122.875000 84.086200 -123.162000 8.984550 -0.406207 -0.000000 2.196890 6.429420 -0.697401 16.377300 -0.000001 -0.000001 -7.577680 -1.622010 1.297890 6.456720 -0.000001 -0.000000 -12.369800 -5.435940 6.897120 12.994200 -0.242716 4.980390 -89.831800 -0.509232 -71.728100 5.348090 -0.000007 -0.000001 -63.020800 36.028000 7.406600 24.328600 0.000019 0.000005 26.689800 -10.224600 -109.448000 22.291600 -0.000001 0.000005 1.320430 5.510160 -6.947560 12.994500 -0.242716 -4.980390 88.974200 6.364380 -80.827100 -5.348130 -0.000001 -0.000004 -67.291500 33.276400 -10.627600 -24.328900 0.000322 -0.000009 -0.704654 0.371253 -117.789000 -22.291500 -0.000108 -0.000004 15.431900 5.537780 -8.137350 -2.192480 -6.469440 -0.000000 177.162000 -7.430150 -29.022300 39.081100 -0.000007 -0.000012 -0.014847 0.008194 61.120600 40.985400 -0.000006 -0.000013 4.772540 -5.248730 -58.901900 11.754300 -0.000000 0.000003 -0.003229 -0.043175 -18.332700 -2.192510 6.469440 -0.000001 176.250000 16.331600 177.959000 -39.081100 -0.002282 -0.040193 0.048736 -0.066266 34.441600 -40.985400 0.000008 0.000006 10.734200 15.672200 -60.385300 -11.754300 -0.000006 -0.000006 -0.131995 -0.517871 -38.370700
0.000000 0.000000 0.000000 0.000000 0.000000 -0.000000 6.562570 93.382500 -0.156282 88.829600 -2.355860 -7.426100 15.735700 0.000005 -0.000001 130.084000 83.926700 -130.638000 8.984550 -0.406207 -0.000000 1.581560 7.847140 -1.217130 16.377300 -0.000001 -0.000001 -8.389810 -1.280350 0.744332 6.456720 -0.000001 -0.000000 -13.389600 -6.013350 6.145010 12.994200 -0.242716 4.980390 -89.428000 -1.655700 -70.941100 5.348090 -0.000007 -0.000001 -59.800700 34.991200 9.503680 24.328600 0.000019 0.000005 23.717200 -9.882900 -111.341000 22.291600 -0.000001 0.000005 0.959108 5.499110 -6.497590 12.994500 -0.242716 -4.980390 89.350000 4.451120 -81.686000 -5.348130 -0.000001 -0.000004 -64.747300 37.664900 -16.221000 -24.328900 0.000322 -0.000009 0.115357 -0.061687 -118.107000 -22.291500 -0.000108 -0.000004 14.031900 5.516130 -7.192560 -2.192480 -6.469440 -0.000000 177.117000 -7.029060 -28.257600 39.081100 -0.000007 -0.000012 -0.006250 0.006352 44.549800 40.985400 -0.000006 -0.000013 4.518800 -2.558290 -60.748000 11.754300 -0.000000 0.000003 -0.003850 -0.049881 -18.605700 -2.192510 6.469440 -0.000001 174.193000 20.205100 -179.123000 -39.081100 -0.002282 -0.040193 0.070991 -0.115883 30.290100 -40.985400 0.000008 0.000006 8.137190 21.537300 -48.779600 -11.754300 -0.000006 -0.000006 -0.137602 -0.529647 -38.899500
0.000000 0.000000 0.000000 0.000000 0.000000 -0.000000 6.915400 94.092900 6.068730 87.338000 -1.888230 -6.543790 15.735700 0.000005 -0.000001 129.659000 83.544100 -129.974000 8.984550 -0.406207 -0.000000 2.219010 8.249880 -0.790453 16.377300 -0.000001 -0.000001 -8.428740 -1.393360 0.326205 6.456720 -0.000001 -0.000000 -14.808600 -6.160040 5.056020 12.994200 -0.242716 4.980390 -88.815700 -3.339230 -70.460300 5.348090 -0.000007 -0.000001 -57.563900 32.793600 11.483100 24.328600 0.000019 0.000005 20.573300 -9.134420 -112.927000 22.291600 -0.000001 0.000005 0.686347 5.485750 -5.969470 12.994500 -0.242716 -4.980390 89.672700 2.358010 -82.096200 -5.348130 -0.000001 -0.000004 -60.441400 41.577300 -23.337200 -24.328900 0.000322 -0.000009 0.589259 -0.315023 -118.125000 -22.291500 -0.000108 -0.000004 12.505300 5.502640 -6.637530 -2.192480 -6.469440 -0.000000 179.262000 -5.618940 -24.338200 39.081100 -0.000007 -0.000012 -0.002939 0.005432 28.423000 40.985400 -0.000006 -0.000013 3.803300 0.510131 -63.439500 11.754300 -0.000000 0.000003 -0.004096 -0.052446 -18.710200 -2.192510 6.469440 -0.000001 172.609000 22.712800 -174.713000 -39.081100 -0.002282 -0.040193 0.120509 -0.216315 28.449900 -40.985400 0.000008 0.000006 1.743310 23.740100 -39.022400 -11.754300 -0.000006 -0.000006 -0.074387 -0.375939 -32.157700
0.000000 0.000000 0.000000 0.000000 0.000000 -0.000000 7.210210 93.357200 12.628900 86.297000 -1.582030 -5.148580 15.735700 0.000005 -0.000001 127.521000 83.177400 -127.629000 8.984550 -0.406207 -0.000000 3.092580 8.306400 -0.439393 16.377300 -0.000001 -0.000001 -7.642340 -1.825200 0.039056 6.456720 -0.000001 -0.000000 -15.620300 -6.403190 4.047740 12.994200 -0.242716 4.980390 -88.112300 -5.316330 -70.417600 5.348090 -0.000007 -0.000001 -56.361600 29.945100 13.102900 24.328600 0.000019 0.000005 18.998800 -8.675420 -113.658000 22.291600 -0.000001 0.000005 -0.033714 5.473990 -5.519000 12.994500 -0.242716 -4.980390 89.924000 0.549950 -82.125300 -5.348130 -0.000001 -0.000004 -55.320000 44.317200 -30.362300 -24.328900 0.000322 -0.000009 1.000280 -0.531591 -117.983000 -22.291500 -0.000108 -0.000004 12.324500 5.493790 -6.284990 -2.192480 -6.469440 -0.000000 -179.137000 -5.448280 -21.830400 39.081100 -0.000007 -0.000012 -0.000083 0.000229 19.904100 40.985400 -0.000006 -0.000013 1.802420 0.944070 -64.238100 11.754300 -0.000000 0.000003 -0.004586 -0.057414 -18.912600 -2.192510 6.469440 -0.000001 171.703000 20.793300 -171.248000 -39.081100 -0.002282 -0.040193 0.160481 -0.268965 30.301600 -40.985400 0.000008 0.000006 -3.583860 19.558500 -35.189800 -11.754300 -0.000006 -0.000006 -0.020973 -0.172619 -23.627500
0.000000 0.000000 0.000000 0.000000 0.000000 -0.000000 7.860130 91.623800 18.983500 87.354200 -2.343440 -5.085730 15.735700 0.000005 -0.000001 126.868000 83.228000 -127.554000 8.984550 -0.406207 -0.000000 3.146490 8.145200 -1.596220 16.377300 -0.000001 -0.000001 -6.655150 -2.150450 0.031607 6.456720 -0.000001 -0.000000 -15.397800 -6.818500 3.696440 12.994200 -0.242716 4.980390 -87.699800 -6.477890 -70.402500 5.348090 -0.000007 -0.000001 -54.611900 26.586900 14.250500 24.328600 0.000019 0.000005 19.573400 -9.188660 -114.185000 22.291600 -0.000001 0.000005 -0.607115 5.472270 -5.455560 12.994500 -0.242716 -4.980390 89.973100 0.191329 -82.007700 -5.348130 -0.000001 -0.000004 -50.369700 45.701500 -35.705600 -24.328900 0.000322 -0.000009 1.121650 -0.590309 -117.755000 -22.291500 -0.000108 -0.000004 12.069400 5.491030 -6.176440 -2.192480 -6.469440 -0.000000 179.379000 -6.520200 -26.643100 39.081100 -0.000007 -0.000012 0.055831 -0.112646 26.364400 40.985400 -0.000006 -0.000013 3.183460 -2.547320 -60.242900 11.754300 -0.000000 0.000003 -0.005056 -0.062013 -19.100000 -2.192510 6.469440 -0.000001 171.215000 15.518700 -171.956000 -39.081100 -0.002282 -0.040193 0.177665 -0.227288 37.496300 -40.985400 0.000008 0.000006 -0.373343 11.554300 -39.913900 -11.754300 -0.000006 -0.000006 -0.019191 -0.162768 -23.221700
0.000000 0.000000 0.000000 0.000000 0.000000 -0.000000 8.772760 88.944000 25.590700 88.498900 -3.649770 -4.739820 15.735700 0.000005 -0.000001 123.865000 83.392200 -125.075000 8.984550 -0.406207 -0.000000 3.310960 7.403060 -2.635540 16.377300 -0.000001 -0.000001 -5.904100 -2.042580 -0.096813 6.456720 -0.000001 -0.000000 -14.272300 -6.914590 3.649240 12.994200 -0.242716 4.980390 -87.830500 -5.934140 -69.874700 5.348090 -0.000007 -0.000001 -51.577400 22.864500 14.932200 24.328600 0.000019 0.000005 19.779800 -9.706790 -115.119000 22.291600 -0.000001 0.000005 -0.115808 5.477870 -5.666930 12.994500 -0.242716 -4.980390 89.861400 0.947001 -81.676900 -5.348130 -0.000001 -0.000004 -46.801600 46.517100 -38.938600 -24.328900 0.000322 -0.000009 2.002470 -1.013460 -116.841000 -22.291500 -0.000108 -0.000004 11.721700 5.499380 -6.509670 -2.192480 -6.469440 -0.000000 177.778000 -8.518810 -29.862400 39.081100 -0.000007 -0.000012 -0.216777 0.254341 40.441800 40.985400 -0.000006 -0.000013 3.197440 -3.073470 -66.072100 11.754300 -0.000000 0.000003 -0.000085 -0.000891 -16.611900 -2.192510 6.469440 -0.000001 170.501000 10.491500 -174.299000 -39.081100 -0.002282 -0.040193 0.190028 -0.168402 47.961200 -40.985400 0.000008 0.000006 2.962950 4.130460 -42.801600 -11.754300 -0.000006 -0.000006 -0.017731 -0.154379 -22.876500
0.000000 0.000000 0.000000 0.000000 0.000000 -0.000000 9.555320 86.036400 31.954400 89.146900 -4.322440 -3.243780 15.735700 0.000005 -0.000001 116.525000 83.382100 -117.925000 8.984550 -0.406207 -0.000000 4.169310 5.945880 -3.015910 16.377300 -0.000001 -0.000001 -5.854860 -1.853530 -0.171116 6.456720 -0.000001 -0.000000 -12.549200 -6.662350 2.830890 12.994200 -0.242716 4.980390 -88.877700 -3.077500 -69.959000 5.348090 -0.000007 -0.000001 -47.409800 18.711500 14.617500 24.328600 0.000019 0.000005 19.241500 -9.754060 -115.891000 22.291600 -0.000001 0.000005 0.178677 5.486910 -6.013500 12.994500 -0.242716 -4.980390 89.522500 3.162540 -81.409800 -5.348130 -0.000001 -0.000004 -46.763800 46.855300 -37.332000 -24.328900 0.000322 -0.000009 5.168110 -2.425020 -115.086000 -22.291500 -0.000108 -0.000004 11.412000 5.518750 -7.307880 -2.192480 -6.469440 -0.000000 176.971000 -10.425400 -29.189300 39.081100 -0.000007 -0.000012 -0.438536 0.349570 51.441600 40.985400 -0.000006 -0.000013 3.416820 -2.840980 -76.400900 11.754300 -0.000000 0.000003 -0.000776 -0.005740 -16.783400 -2.192510 6.469440 -0.000001 170.194000 7.419470 -178.237000 -39.081100 -0.002282 -0.040193 0.193276 -0.104619 61.172300 -40.985400 0.000008 0.000006 6.311060 -1.749950 -42.185500 -11.754300 -0.000006 -0.000006 -0.016603 -0.147687 -22.601400
0.000000 0.000000 0.000000 0.000000 0.000000 -0.000000 10.441700 84.345000 37.802900 90.912500 -4.532910 -2.644230 15.735700 0.000005 -0.000001 109.427000 83.328500 -111.416000 8.984550 -0.406207 -0.000000 4.910090 4.478950 -4.166120 16.377300 -0.000001 -0.000001 -5.977960 -1.964970 -0.307205 6.456720 -0.000001 -0.000000 -12.270100 -6.800120 2.469100 12.994200 -0.242716 4.980390 -90.030100 0.081185 -69.712300 5.348090 -0.000007 -0.000001 -46.503600 15.115700 9.068790 24.328600 0.000019 0.000005 23.491900 -10.754400 -113.243000 22.291600 -0.000001 0.000005 -0.276581 5.513900 -7.110470 12.994500 -0.242716 -4.980390 89.041000 6.281070 -81.301800 -5.348130 -0.000001 -0.000004 -52.730900 46.210400 -27.540600 -24.328900 0.000322 -0.000009 10.561900 -4.522530 -112.926000 -22.291500 -0.000108 -0.000004 12.216400 5.551160 -8.750930 -2.192480 -6.469440 -0.000000 174.981000 -11.941400 -25.771500 39.081100 -0.000007 -0.000012 -0.529586 0.370968 54.990500 40.985400 -0.000006 -0.000013 3.928430 -2.463300 -83.015400 11.754300 -0.000000 0.000003 -0.000994 -0.007052 -16.827200 -2.192510 6.469440 -0.000001 169.156000 6.144840 175.277000 -39.081100 -0.002282 -0.040193 0.150112 -0.043812 73.409400 -40.985400 0.000008 0.000006 9.657120 -4.451760 -43.363600 -11.754300 -0.000006 -0.000006 -0.015902 -0.143425 -22.426300
